<svg xmlns="http://www.w3.org/2000/svg" width="98.08" height="21.29" viewBox="0 0 98.08 21.29">
    <g transform="translate(0 0)">
        <g>
            <path d="M48.719,229.031a3.105,3.105,0,0,1-3.1-3.1V210.845a3.1,3.1,0,0,1,3.1-3.1H73.853a3.107,3.107,0,0,1,3.1,3.1v5.85a3.106,3.106,0,0,1-3.1,3.1H50.858a1.427,1.427,0,1,1,0-2.854H73.853a.252.252,0,0,0,.251-.25v-5.85a.251.251,0,0,0-.251-.248H48.719a.252.252,0,0,0-.252.248v15.083a.252.252,0,0,0,.252.25,1.426,1.426,0,0,1,0,2.853Z" transform="translate(-45.616 -207.741)" fill="#de2314"></path>
            <path d="M328.786,229.031H303.648a3.107,3.107,0,0,1-3.1-3.1V210.845a3.106,3.106,0,0,1,3.1-3.1h25.138a3.1,3.1,0,0,1,3.1,3.1,1.426,1.426,0,1,1-2.853,0,.25.25,0,0,0-.25-.248H303.648a.251.251,0,0,0-.248.248v15.083a.252.252,0,0,0,.248.25h25.138a.251.251,0,0,0,.25-.25,1.426,1.426,0,1,1,2.853,0,3.105,3.105,0,0,1-3.1,3.1Z" transform="translate(-267.179 -207.741)" fill="#de2314"></path>
        </g>
        <g transform="translate(66.739)">
            <path d="M583.7,216.945H558.567a.25.25,0,0,1-.251-.25v-5.85a.249.249,0,0,1,.251-.248H583.7a.25.25,0,0,1,.25.248,1.427,1.427,0,1,0,2.854,0,3.109,3.109,0,0,0-3.1-3.1H558.567a3.107,3.107,0,0,0-3.1,3.1v5.85a3.106,3.106,0,0,0,3.1,3.1H583.7a.249.249,0,0,1,.25.247v5.882a.251.251,0,0,1-.25.25H558.567a.25.25,0,0,1-.251-.25,1.427,1.427,0,0,0-2.854,0,3.108,3.108,0,0,0,3.1,3.1H583.7a3.11,3.11,0,0,0,3.1-3.1v-5.882A3.109,3.109,0,0,0,583.7,216.945Zm1.678-7.283a1.185,1.185,0,1,1-1.187,1.183A1.188,1.188,0,0,1,585.379,209.662Z" transform="translate(-555.463 -207.741)" fill="#de2314"></path>
        </g>
    </g>
    <path d="M781.169,227.087c.205-.024.355-.118.355-.36,0-.284-.174-.4-.5-.4h-.5v1.342h.221V227.1h.2l.336.573h.257Zm-.422-.177v-.393h.274c.13,0,.281.03.281.189,0,.182-.126.2-.284.2Z" transform="translate(-684.326 -223.898)" fill="#de2314"></path>
</svg>